 <svg  version="1.0" xmlns="http://www.w3.org/2000/svg"  width="300.000000pt" height="188.000000pt" viewBox="0 0 300.000000 188.000000"  preserveAspectRatio="xMidYMid meet">  <g transform="translate(0.000000,188.000000) scale(0.100000,-0.100000)" fill="#ff0026" stroke="none"> <path d="M1317 1813 c-16 -26 -47 -157 -47 -197 0 -88 73 -125 131 -67 39 40 39 79 -2 126 -17 19 -42 60 -54 91 -12 31 -25 52 -28 47z m73 -184 c13 -24 -11 -63 -41 -67 -21 -2 -29 3 -39 27 -11 29 -7 91 8 115 5 9 53 -41 72 -75z"/> <path d="M1611 1788 c-40 -17 -91 -48 -113 -69 -36 -34 -40 -42 -34 -71 8 -42 39 -68 83 -68 39 0 83 37 83 69 0 29 38 127 55 141 16 13 20 30 8 30 -5 0 -41 -15 -82 -32z m9 -47 c0 -12 -20 -72 -33 -98 -7 -17 -19 -23 -43 -23 -66 0 -51 70 24 109 41 22 52 25 52 12z"/> <path d="M1650 1603 c-55 -70 29 -160 110 -118 17 9 63 24 102 34 l70 18 -51 31 c-73 46 -118 62 -166 62 -35 0 -48 -5 -65 -27z m138 -23 c23 -10 42 -23 42 -27 0 -9 -39 -26 -93 -43 -22 -7 -32 -5 -48 11 -35 35 -18 79 31 79 14 0 44 -9 68 -20z"/> <path d="M1120 1480 c66 -97 104 -130 150 -130 45 0 80 35 80 80 0 15 -9 39 -21 54 -17 22 -28 26 -73 26 -28 0 -78 7 -109 15 -32 8 -60 15 -63 15 -3 0 14 -27 36 -60z m180 -19 c27 -52 -1 -91 -50 -71 -30 12 -80 63 -80 81 0 5 27 9 60 9 48 0 61 -4 70 -19z"/> <path d="M1675 1425 c-27 -26 -33 -72 -15 -106 6 -10 33 -30 61 -44 27 -14 68 -42 90 -62 l41 -37 -7 50 c-4 27 -13 76 -21 109 -24 101 -95 145 -149 90z m88 -33 c9 -10 23 -40 31 -65 12 -42 12 -47 -1 -47 -25 0 -90 41 -103 65 -27 50 35 89 73 47z"/> <path d="M1277 1287 c-34 -35 -73 -70 -87 -79 l-25 -16 47 -7 c27 -4 79 -5 117 -3 57 3 75 8 96 28 41 38 33 100 -16 125 -48 25 -67 18 -132 -48z m123 5 c47 -38 -5 -82 -97 -82 -43 0 -42 15 4 62 41 42 60 46 93 20z"/> <path d="M1518 1290 c-27 -28 -30 -35 -23 -68 4 -20 11 -73 14 -116 l6 -80 53 60 c61 68 78 95 87 146 6 31 3 41 -19 62 -35 36 -79 35 -118 -4z m100 -53 c4 -29 -43 -107 -63 -107 -8 0 -16 22 -20 62 -7 57 -6 63 15 80 20 16 25 17 44 5 12 -8 22 -26 24 -40z"/> <path d="M180 825 c0 -122 -3 -155 -16 -173 -15 -21 -15 -25 2 -43 23 -26 31 -24 49 11 12 22 15 65 15 192 l0 163 -25 0 -25 0 0 -150z"/> <path d="M345 870 l-105 -105 103 -103 c95 -95 105 -102 142 -102 l40 0 -103 103 -102 103 105 103 c58 57 105 104 105 105 0 1 -18 1 -40 1 -37 0 -47 -6 -145 -105z"/> <path d="M1339 970 c0 -3 0 -63 1 -134 l1 -129 -54 49 c-30 27 -93 84 -139 127 -47 42 -88 77 -90 77 -3 0 -5 -18 -5 -40 0 -39 4 -45 106 -137 58 -53 134 -123 169 -156 l62 -59 0 203 0 204 -25 0 c-14 0 -25 -2 -26 -5z"/> <path d="M1420 974 c0 -4 12 -21 27 -36 26 -27 30 -28 125 -28 l98 0 0 30 0 30 -109 0 c-60 0 -116 3 -125 6 -9 3 -16 3 -16 -2z"/> <path d="M1892 943 c31 -32 34 -33 119 -33 83 0 89 -1 108 -26 34 -43 26 -86 -20 -109 -19 -10 -60 -15 -134 -15 l-105 0 0 -100 0 -100 31 0 31 0 -4 69 -3 69 102 4 c92 3 104 5 129 28 54 50 68 122 34 177 -30 50 -61 60 -197 64 l-122 4 31 -32z"/> <path d="M2270 822 l0 -156 30 29 30 29 0 126 0 127 -30 1 -30 1 0 -157z"/> <path d="M2620 974 c0 -2 36 -49 80 -103 44 -55 80 -103 80 -106 0 -3 -36 -51 -80 -106 l-80 -99 40 0 40 0 147 190 c82 105 149 197 151 204 2 8 -9 15 -28 18 -29 4 -35 0 -88 -74 -31 -43 -60 -78 -63 -78 -4 0 -33 36 -66 79 -55 75 -60 79 -95 79 -21 0 -38 -2 -38 -4z"/> <path d="M774 955 c-44 -20 -101 -87 -114 -136 -43 -160 125 -307 278 -244 161 68 167 295 10 376 -44 22 -128 24 -174 4z m156 -60 c69 -36 95 -114 61 -189 -50 -113 -208 -116 -263 -6 -34 66 -18 133 42 184 25 20 42 26 81 26 28 0 63 -7 79 -15z"/> <path d="M1408 770 l-5 -30 111 0 c61 0 121 -3 134 -6 20 -6 22 -3 22 30 l0 36 -129 0 -129 0 -4 -30z"/> <path d="M27 614 c-17 -23 -17 -24 12 -39 17 -8 48 -15 71 -15 40 0 41 1 26 21 -8 12 -32 29 -53 39 -38 17 -39 17 -56 -6z"/> <path d="M1435 590 l-29 -30 132 0 132 0 0 30 0 30 -103 0 c-102 0 -104 0 -132 -30z"/> <path d="M2305 590 l-29 -30 132 0 132 0 0 30 0 30 -103 0 c-102 0 -104 0 -132 -30z"/> <path d="M118 304 c-5 -4 -8 -49 -8 -101 l0 -93 30 0 c23 0 30 4 30 20 0 13 -7 20 -20 20 -17 0 -19 8 -22 81 -2 44 -6 77 -10 73z"/> <path d="M165 274 c4 -21 10 -66 14 -99 3 -33 11 -59 16 -57 6 2 9 14 7 28 -5 32 19 125 30 118 4 -3 8 -22 8 -42 0 -51 11 -112 20 -112 4 0 11 28 15 63 l8 62 10 -62 c5 -35 12 -63 17 -63 11 0 30 183 19 195 -5 5 -9 -4 -9 -25 0 -19 -4 -46 -8 -60 -6 -20 -8 -14 -12 30 -6 68 -24 72 -28 7 -4 -56 -22 -54 -22 4 0 31 -4 39 -19 39 -12 0 -22 -11 -28 -32 l-11 -33 -7 33 c-11 48 -30 54 -20 6z"/> <path d="M372 301 c-20 -12 -33 -82 -24 -131 8 -50 32 -71 56 -51 23 19 23 153 0 175 -18 19 -15 18 -32 7z m29 -58 c11 -29 1 -93 -15 -96 -15 -3 -28 52 -22 89 8 41 23 44 37 7z"/> <path d="M455 294 c-20 -21 -21 -142 -1 -170 32 -42 73 29 60 106 -11 73 -30 93 -59 64z m41 -58 c7 -38 -5 -86 -21 -87 -16 -1 -27 64 -16 94 14 37 29 34 37 -7z"/> <path d="M758 303 c-2 -5 -2 -50 0 -100 3 -91 4 -93 28 -93 17 0 24 5 24 20 0 14 -7 20 -21 20 -20 0 -21 3 -14 74 4 46 3 76 -4 80 -5 4 -11 3 -13 -1z"/> <path d="M841 301 c-32 -20 -33 -153 -2 -184 36 -36 72 64 52 139 -12 43 -28 58 -50 45z m35 -68 c7 -38 -5 -88 -21 -88 -11 0 -19 89 -11 111 10 25 25 14 32 -23z"/> <path d="M926 288 c-30 -42 -16 -178 18 -178 20 0 38 35 33 63 -3 20 -4 20 -16 -7 -8 -20 -15 -26 -22 -19 -14 14 -7 115 9 121 7 2 12 -5 12 -17 0 -12 5 -21 10 -21 16 0 12 47 -6 64 -20 20 -20 20 -38 -6z"/> <path d="M999 304 c-4 -53 2 -188 8 -186 4 2 7 16 6 32 -4 45 15 45 27 0 6 -22 15 -40 20 -40 14 0 12 20 -6 72 -14 41 -14 50 0 75 9 18 11 34 6 43 -7 11 -11 8 -19 -13 -6 -16 -11 -32 -11 -37 0 -5 -5 -12 -10 -15 -7 -4 -10 6 -8 29 1 19 -1 38 -5 42 -4 4 -7 3 -8 -2z"/> <path d="M1209 294 c-18 -22 -24 -118 -9 -154 17 -40 45 -39 59 1 16 46 14 121 -5 147 -18 26 -27 27 -45 6z m36 -85 c0 -41 -4 -54 -15 -54 -16 0 -27 73 -16 102 13 33 31 5 31 -48z"/> <path d="M1306 302 c-3 -5 -10 -40 -16 -78 -6 -38 -14 -79 -17 -91 -3 -13 -1 -23 5 -23 6 0 12 10 14 22 5 34 38 37 38 4 0 -14 5 -26 10 -26 13 0 12 7 -4 108 -13 84 -19 101 -30 84z"/> <path d="M1660 210 l0 -101 27 3 c33 4 43 27 14 35 -19 5 -21 13 -21 79 0 40 -4 76 -10 79 -6 4 -10 -30 -10 -95z"/> <path d="M1726 297 c-12 -25 -3 -164 12 -179 9 -9 17 -10 30 -2 14 9 18 29 20 105 2 62 -1 90 -7 84 -6 -6 -11 -44 -13 -85 -4 -100 -22 -92 -28 12 -4 55 -8 77 -14 65z"/> <path d="M1822 298 c-19 -19 -15 -76 8 -95 20 -18 28 -63 11 -63 -5 0 -14 12 -19 28 l-10 27 -1 -30 c-2 -72 51 -72 57 0 3 31 -2 43 -23 62 -14 13 -23 28 -20 34 9 14 25 11 25 -6 0 -8 5 -15 10 -15 13 0 13 26 0 51 -12 22 -21 24 -38 7z"/> <path d="M1890 210 c0 -69 3 -99 11 -95 6 4 9 23 7 43 -2 29 1 38 15 40 14 3 17 -4 17 -42 0 -25 5 -46 10 -46 6 0 10 38 10 94 0 53 -4 98 -10 101 -6 4 -10 -10 -10 -34 0 -33 -4 -41 -18 -41 -15 0 -17 6 -14 34 2 18 -1 37 -7 40 -8 5 -11 -23 -11 -94z"/> <path d="M2106 294 c-16 -16 -21 -50 -16 -114 4 -65 37 -93 60 -51 16 32 13 147 -6 165 -8 9 -17 16 -19 16 -2 0 -11 -7 -19 -16z m35 -51 c11 -29 1 -93 -15 -96 -15 -3 -28 52 -22 89 8 41 23 44 37 7z"/> <path d="M2195 294 c-20 -21 -21 -142 -1 -170 32 -42 73 34 60 111 -12 69 -30 87 -59 59z m41 -58 c6 -37 -5 -84 -21 -88 -16 -5 -28 64 -16 95 14 37 29 34 37 -7z"/> <path d="M2418 300 c-1 -5 -2 -50 0 -100 l3 -90 40 2 c34 1 39 4 39 25 0 32 34 27 38 -5 3 -20 22 -33 22 -14 0 13 -30 167 -36 182 -9 24 -21 -5 -29 -70 -10 -81 -13 -89 -35 -83 -18 5 -20 14 -20 79 0 40 -4 75 -9 78 -5 4 -11 2 -13 -4z"/> <path d="M2669 305 c-4 -30 0 -187 5 -192 3 -3 6 39 6 95 0 56 -2 102 -5 102 -3 0 -5 -2 -6 -5z"/> <path d="M2707 304 c-11 -11 -9 -194 3 -194 6 0 10 26 11 58 l1 57 15 -57 c8 -32 19 -58 24 -58 5 0 9 45 9 101 0 64 -4 98 -10 94 -5 -3 -10 -30 -11 -58 l-1 -52 -12 45 c-19 68 -21 72 -29 64z"/> <path d="M2810 308 c0 -2 -7 -41 -15 -88 -18 -101 -18 -110 -5 -110 6 0 10 12 10 26 0 33 33 30 38 -4 2 -12 8 -22 13 -22 6 0 8 12 5 27 -3 16 -10 61 -17 101 -7 39 -16 72 -21 72 -4 0 -8 -1 -8 -2z"/> <path d="M34 287 c-9 -24 0 -172 11 -169 6 1 10 17 11 35 0 18 5 32 12 32 26 0 41 59 26 99 -7 19 -53 21 -60 3z m44 -45 c2 -15 -2 -22 -12 -22 -11 0 -16 9 -16 26 0 31 23 28 28 -4z"/> <path d="M530 205 c0 -95 0 -95 25 -95 31 0 45 31 45 101 0 63 -13 89 -45 89 -25 0 -25 -1 -25 -95z m45 5 c0 -34 -5 -55 -12 -57 -10 -4 -13 12 -13 57 0 45 3 61 13 58 7 -3 12 -24 12 -58z"/> <path d="M670 210 c0 -75 3 -92 16 -97 34 -13 49 11 51 78 2 97 -2 109 -37 109 l-30 0 0 -90z m48 38 c-2 -13 -7 -23 -13 -23 -5 0 -11 10 -13 23 -2 15 2 22 13 22 11 0 15 -7 13 -22z m2 -79 c0 -10 -7 -19 -15 -19 -15 0 -21 31 -9 43 11 10 24 -3 24 -24z"/> <path d="M1110 205 c0 -94 0 -95 25 -95 35 0 46 28 41 104 -6 78 -9 86 -42 86 -24 0 -24 -1 -24 -95z m48 43 c2 -9 -4 -18 -13 -21 -11 -5 -15 0 -15 19 0 28 23 29 28 2z m0 -76 c2 -15 -2 -22 -12 -22 -11 0 -16 9 -16 26 0 31 23 28 28 -4z"/> <path d="M1360 205 c0 -57 4 -95 10 -95 6 0 10 18 10 40 0 52 16 52 25 0 4 -22 11 -40 16 -40 11 0 11 37 0 65 -4 10 -3 31 2 45 6 15 7 39 3 53 -5 22 -12 27 -36 27 l-30 0 0 -95z m48 43 c-5 -32 -28 -35 -28 -4 0 17 5 26 16 26 10 0 14 -7 12 -22z"/> <path d="M1448 243 c-8 -89 0 -133 24 -133 37 0 61 103 38 164 -6 18 -17 26 -33 26 -22 0 -25 -5 -29 -57z m43 3 c15 -31 3 -96 -16 -96 -12 0 -15 14 -15 60 0 63 13 77 31 36z"/> <path d="M1590 205 c0 -57 4 -95 10 -95 6 0 10 18 10 40 0 29 4 40 15 40 8 0 15 9 15 20 0 11 -7 20 -15 20 -8 0 -15 9 -15 20 0 13 7 20 20 20 11 0 20 7 20 15 0 10 -10 15 -30 15 l-30 0 0 -95z"/> <path d="M2002 208 c3 -83 5 -93 22 -96 31 -6 46 26 46 98 0 71 -10 90 -47 90 -23 0 -24 -1 -21 -92z m48 26 c8 -42 0 -84 -16 -84 -10 0 -14 16 -14 61 0 44 3 60 13 57 6 -3 14 -18 17 -34z"/> <path d="M2270 205 c0 -57 4 -95 10 -95 6 0 10 18 10 41 0 48 15 44 24 -6 4 -19 11 -35 16 -35 12 0 12 37 1 65 -4 10 -3 31 2 45 6 15 7 39 3 53 -5 22 -12 27 -36 27 l-30 0 0 -95z m45 40 c0 -10 -6 -20 -12 -22 -8 -3 -13 5 -13 22 0 17 5 25 13 23 6 -3 12 -13 12 -23z"/> <path d="M2570 203 c0 -53 3 -93 7 -89 4 4 6 28 5 54 -1 35 1 42 8 27 5 -11 9 -35 9 -52 1 -54 21 -37 21 18 0 31 -4 48 -10 44 -6 -4 -10 13 -10 44 0 39 -4 51 -15 51 -12 0 -15 -17 -15 -97z"/> <path d="M2623 233 c4 -38 7 -80 7 -95 0 -16 5 -28 10 -28 6 0 10 38 10 95 0 81 -2 95 -16 95 -15 0 -16 -9 -11 -67z"/> <path d="M2850 285 c0 -8 7 -15 15 -15 12 0 15 -16 15 -81 0 -51 4 -78 10 -74 6 3 10 40 10 81 0 43 4 74 10 74 6 0 10 7 10 15 0 10 -11 15 -35 15 -24 0 -35 -5 -35 -15z"/> <path d="M2932 208 l3 -93 30 0 c36 0 42 28 8 33 -31 5 -33 52 -3 52 11 0 20 7 20 15 0 8 -9 15 -20 15 -13 0 -20 7 -20 20 0 13 7 20 20 20 11 0 20 7 20 15 0 10 -10 15 -30 15 l-31 0 3 -92z"/> <path d="M2360 160 c-1 -3 -4 -25 -5 -49 -2 -28 0 -40 7 -33 5 5 8 27 5 48 -2 22 -5 37 -7 34z"/> <path d="M608 114 c-4 -34 3 -50 16 -37 9 10 7 73 -3 73 -5 0 -11 -16 -13 -36z"/> <path d="M1523 110 c0 -46 13 -54 19 -12 5 32 0 52 -11 52 -5 0 -8 -18 -8 -40z"/> </g> </svg> 